<svg id="Capa_1" enable-background="new 0 0 512 512" height="512" viewBox="0 0 512 512" width="512" xmlns="http://www.w3.org/2000/svg"><g><path d="m179.975 273.5h-8.975c-8.284 0-15 6.716-15 15s6.716 15 15 15h170c8.284 0 15-6.716 15-15s-6.716-15-15-15h-8.975c-6.052-30.719-30.303-54.979-61.025-61.03v23.53c0 8.284-6.716 15-15 15s-15-6.716-15-15v-23.53c-30.721 6.051-54.972 30.311-61.025 61.03z"/><path d="m333.319 402.823c-17.839 23.197-45.861 38.177-77.319 38.177s-59.48-14.98-77.319-38.177c-28.866 20.913-47.681 54.887-47.681 93.177 0 8.284 6.716 15 15 15h220c8.284 0 15-6.716 15-15 0-38.29-18.815-72.264-47.681-93.177z"/><path d="m256 411c37.279 0 67.5-30.221 67.5-67.5v-10h-135v10c0 37.279 30.221 67.5 67.5 67.5z"/><path d="m271 212.47v-6.47c0-8.284-6.716-15-15-15s-15 6.716-15 15v6.47c4.856-.956 9.868-1.47 15-1.47s10.144.514 15 1.47z"/><path d="m302 113.5h170c8.284 0 15-6.716 15-15s-6.716-15-15-15h-8.975c-6.053-30.719-30.304-54.979-61.025-61.03v23.53c0 8.284-6.716 15-15 15s-15-6.716-15-15v-23.53c-30.721 6.051-54.972 30.311-61.025 61.03h-8.975c-8.284 0-15 6.716-15 15s6.716 15 15 15z"/><path d="m387 221c37.279 0 67.5-30.221 67.5-67.5v-10h-135v10c0 37.279 30.221 67.5 67.5 67.5z"/><path d="m465.515 211.238c-17.769 24.098-46.345 39.762-78.515 39.762-11.4 0-22.346-1.973-32.524-5.585.025.058.054.114.079.171 18.21 5.765 31.445 22.823 31.445 42.914 0 20.496-13.779 37.823-32.556 43.236.034.584.056 1.171.056 1.764v10c0 11.592-2.038 22.715-5.766 33.037 1.087.598 2.157 1.246 3.187 1.993 12.603 9.131 23.493 20.138 32.419 32.471h113.66c8.284 0 15-6.716 15-15v-95c0-37.015-18.377-69.816-46.485-89.763z"/><path d="m402 22.47v-6.47c0-8.284-6.716-15-15-15s-15 6.716-15 15v6.47c4.856-.956 9.868-1.47 15-1.47s10.144.514 15 1.47z"/><path d="m40 113.5h170c8.284 0 15-6.716 15-15s-6.716-15-15-15h-8.975c-6.053-30.719-30.304-54.979-61.025-61.03v23.53c0 8.284-6.716 15-15 15s-15-6.716-15-15v-23.53c-30.721 6.051-54.972 30.311-61.025 61.03h-8.975c-8.284 0-15 6.716-15 15s6.716 15 15 15z"/><path d="m192.5 153.5v-10h-135v10c0 37.279 30.221 67.5 67.5 67.5s67.5-30.221 67.5-67.5z"/><path d="m161.08 378.529c1.03-.746 2.1-1.395 3.187-1.993-3.729-10.322-5.766-21.445-5.766-33.037v-10c0-.593.022-1.18.056-1.764-18.778-5.412-32.557-22.739-32.557-43.235 0-20.091 13.235-37.149 31.444-42.914.025-.058.054-.114.079-.171-10.177 3.612-21.123 5.585-32.523 5.585-32.17 0-60.746-15.664-78.515-39.762-28.108 19.947-46.485 52.748-46.485 89.762v95c0 8.284 6.716 15 15 15h113.661c8.925-12.333 19.816-23.34 32.419-32.471z"/><path d="m140 22.47v-6.47c0-8.284-6.716-15-15-15s-15 6.716-15 15v6.47c4.856-.956 9.868-1.47 15-1.47s10.144.514 15 1.47z"/></g></svg>