<svg id="Capa_1" enable-background="new 0 0 512 512" height="512" viewBox="0 0 512 512" width="512" xmlns="http://www.w3.org/2000/svg"><g><path d="m40 304.5h170c8.284 0 15-6.716 15-15s-6.716-15-15-15h-8.975c-6.052-30.719-30.303-54.979-61.025-61.03v23.53c0 8.284-6.716 15-15 15s-15-6.716-15-15v-23.53c-30.721 6.051-54.972 30.311-61.025 61.03h-8.975c-8.284 0-15 6.716-15 15s6.716 15 15 15z"/><path d="m202.319 403.823c-17.839 23.197-45.861 38.177-77.319 38.177s-59.48-14.98-77.319-38.177c-28.866 20.913-47.681 54.887-47.681 93.177 0 8.284 6.716 15 15 15h220c8.284 0 15-6.716 15-15 0-38.29-18.815-72.264-47.681-93.177z"/><path d="m57.5 344.5c0 37.279 30.221 67.5 67.5 67.5s67.5-30.221 67.5-67.5v-10h-135z"/><path d="m140 213.47v-6.47c0-8.284-6.716-15-15-15s-15 6.716-15 15v6.47c4.856-.956 9.868-1.47 15-1.47s10.144.514 15 1.47z"/><circle cx="367" cy="145" r="20"/><path d="m367 0c-79.953 0-145 65.047-145 145 0 39.386 15.79 76.503 43.732 103.726l-11.452 18.324c-2.891 4.624-3.043 10.452-.399 15.222 2.643 4.77 7.666 7.729 13.119 7.729h100c79.953 0 145-65.047 145-145s-65.047-145.001-145-145.001zm70 160h-22.302c-.888 2.819-2.028 5.526-3.379 8.106l15.784 15.784c5.858 5.857 5.858 15.355 0 21.213-2.929 2.929-6.768 4.394-10.606 4.394s-7.678-1.465-10.606-4.394l-15.784-15.784c-2.58 1.351-5.287 2.491-8.106 3.379v22.302c0 8.284-6.716 15-15 15s-15-6.716-15-15v-22.302c-2.819-.888-5.526-2.028-8.106-3.379l-15.784 15.784c-2.929 2.929-6.768 4.394-10.606 4.394s-7.678-1.465-10.606-4.394c-5.858-5.857-5.858-15.355 0-21.213l15.784-15.784c-1.351-2.58-2.491-5.287-3.379-8.106h-22.304c-8.284 0-15-6.716-15-15s6.716-15 15-15h22.302c.888-2.819 2.028-5.526 3.379-8.106l-15.784-15.784c-5.858-5.857-5.858-15.355 0-21.213 5.857-5.857 15.355-5.857 21.213 0l15.784 15.784c2.58-1.351 5.287-2.491 8.106-3.379v-22.302c0-8.284 6.716-15 15-15s15 6.716 15 15v22.302c2.819.888 5.526 2.028 8.106 3.379l15.784-15.784c5.857-5.857 15.355-5.857 21.213 0s5.858 15.355 0 21.213l-15.784 15.784c1.351 2.58 2.491 5.287 3.379 8.106h22.302c8.284 0 15 6.716 15 15s-6.716 15-15 15z"/></g></svg>