<svg id="Capa_1" enable-background="new 0 0 512 512" height="512" viewBox="0 0 512 512" width="512" xmlns="http://www.w3.org/2000/svg"><g><g><path d="m512 430.072v-125.072c0-24.853-20.147-45-45-45-8.284 0-15 6.716-15 15v147h30c10.925 0 21.167 2.949 30 8.072z"/></g><path d="m271 21.47v-6.47c0-8.284-6.716-15-15-15s-15 6.716-15 15v6.47c4.856-.956 9.868-1.47 15-1.47s10.144.514 15 1.47z"/><g><path d="m179.975 82.5h-8.975c-8.284 0-15 6.716-15 15s6.716 15 15 15h170c8.284 0 15-6.716 15-15s-6.716-15-15-15h-8.975c-6.053-30.719-30.304-54.979-61.025-61.03v23.53c0 8.284-6.716 15-15 15s-15-6.716-15-15v-23.53c-30.721 6.051-54.972 30.311-61.025 61.03z"/><g><path d="m336.598 207.304c-17.568 25.754-47.14 42.696-80.598 42.696s-63.03-16.942-80.598-42.696c-32.632 20.315-54.402 56.508-54.402 97.696 0 2.776.771 5.497 2.225 7.861l32.811 53.318c4.044 6.571 10.711 11.167 18.292 12.608 7.582 1.442 15.471-.388 21.645-5.018 11.315-8.486 14.361-24.033 7.084-36.164l-16.279-27.131c-2.821-4.702-3.903-10.245-3.058-15.662 1.78-11.404 11.602-19.812 23.144-19.812h98.271c11.543 0 21.365 8.408 23.144 19.813.845 5.418-.237 10.96-3.058 15.662l-16.279 27.132c-7.277 12.13-4.231 27.677 7.085 36.164 4.791 3.593 10.614 5.498 16.526 5.498 1.706 0 3.42-.158 5.118-.481 7.581-1.44 14.248-6.036 18.292-12.608l32.811-53.318c1.455-2.364 2.225-5.085 2.225-7.861.001-41.189-21.769-77.382-54.401-97.697z"/></g><path d="m256 220c37.279 0 67.5-30.221 67.5-67.5v-10h-135v10c0 37.279 30.221 67.5 67.5 67.5z"/><g><g><path d="m0 430.072v-125.072c0-24.853 20.147-45 45-45 8.284 0 15 6.716 15 15v147h-30c-10.925 0-21.167 2.949-30 8.072z"/></g><path d="m482 452h-30c-16.569 0-30-13.431-30-30v-105.888l-40.487 65.79c-8.453 13.737-22.39 23.345-38.238 26.357-3.515.67-7.125 1.01-10.722 1.01-12.377 0-24.638-4.083-34.524-11.497-23.657-17.742-30.024-50.242-14.812-75.599l10.304-17.173h-75.043l10.305 17.174c15.211 25.356 8.844 57.856-14.812 75.599-9.887 7.414-22.147 11.497-34.524 11.497-3.597 0-7.207-.34-10.722-1.01-15.848-3.013-29.785-12.62-38.238-26.357l-40.487-65.791v105.888c0 16.569-13.431 30-30 30h-30c-16.569 0-30 13.431-30 30s13.431 30 30 30h452c16.569 0 30-13.431 30-30s-13.431-30-30-30z"/></g></g></g></svg>