<svg id="Capa_1" enable-background="new 0 0 512 512" height="512" viewBox="0 0 512 512" width="512" xmlns="http://www.w3.org/2000/svg"><g><path d="m443.732 199.231c17.339-15.573 28.268-38.146 28.268-63.231v-5h15c8.284 0 15-6.716 15-15s-6.716-15-15-15h-6.188c-6.435-40.393-38.419-72.377-78.812-78.812v-6.188c0-8.284-6.716-15-15-15s-15 6.716-15 15v6.188c-40.393 6.435-72.377 38.419-78.812 78.812h-6.188c-8.284 0-15 6.716-15 15s6.716 15 15 15h15v5c0 25.705 11.485 48.763 29.575 64.363-11.842 5.094-22.82 12.176-32.43 21.013-8.696-4.451-18.164-7.597-28.145-9.187v-6.189c0-8.284-6.716-15-15-15s-15 6.716-15 15v6.188c-9.981 1.59-19.449 4.736-28.145 9.187-9.61-8.837-20.587-15.918-32.43-21.013 18.09-15.599 29.575-38.657 29.575-64.362v-5h15c8.284 0 15-6.716 15-15s-6.716-15-15-15h-6.188c-6.435-40.393-38.419-72.377-78.812-78.812v-6.188c0-8.284-6.716-15-15-15s-15 6.716-15 15v6.188c-40.393 6.435-72.377 38.419-78.812 78.812h-6.188c-8.284 0-15 6.716-15 15s6.716 15 15 15h15v5c0 25.085 10.93 47.658 28.268 63.231-40.019 16.47-68.268 55.88-68.268 101.769v95c0 8.284 6.716 15 15 15h153.621c-23.101 21.048-37.621 51.36-37.621 85 0 8.284 6.716 15 15 15h220c8.284 0 15-6.716 15-15 0-33.64-14.52-63.952-37.621-85h153.621c8.284 0 15-6.716 15-15v-95c0-45.889-28.249-85.299-68.268-101.769zm-119.985-98.231c5.647-23.816 24.438-42.591 48.253-48.239v3.239c0 8.284 6.716 15 15 15s15-6.716 15-15v-3.239c23.815 5.648 42.607 24.423 48.253 48.239zm118.253 30v5c0 30.327-24.673 55-55 55s-55-24.673-55-55v-5zm-186 130c8.284 0 15-6.716 15-15v-3.239c23.815 5.648 42.607 24.423 48.253 48.239h-126.506c5.647-23.816 24.438-42.591 48.253-48.239v3.239c0 8.284 6.716 15 15 15zm55 65c0 30.327-24.673 55-55 55s-55-24.673-55-55v-5h110zm-249.253-225c5.646-23.816 24.438-42.591 48.253-48.239v3.239c0 8.284 6.716 15 15 15s15-6.716 15-15v-3.239c23.815 5.648 42.607 24.423 48.253 48.239zm118.253 30v5c0 30.327-24.673 55-55 55s-55-24.673-55-55v-5zm-150 170c0-44.112 35.888-80 80-80h25c19.444 0 38.13 6.667 53.094 18.637-13.438 13.747-22.748 31.541-25.905 51.363h-6.189c-8.284 0-15 6.716-15 15s6.716 15 15 15h15v5c0 20.962 7.643 40.163 20.269 55h-161.269zm319.675 180h-187.35c7.106-39.739 41.923-70 83.675-70h20c41.751 0 76.569 30.261 83.675 70zm132.325-100h-161.269c12.626-14.837 20.269-34.038 20.269-55v-5h15c8.284 0 15-6.716 15-15s-6.716-15-15-15h-6.188c-3.158-19.821-12.468-37.616-25.905-51.363 14.963-11.97 33.649-18.637 53.093-18.637h25c44.112 0 80 35.888 80 80z"/></g></svg>