<svg id="Capa_1" enable-background="new 0 0 512 512" height="512" viewBox="0 0 512 512" width="512" xmlns="http://www.w3.org/2000/svg"><g><path d="m387.952 157.541-84.507-94.218c-.014-.016-.026-.02-.04-.034-1.128-1.245-2.571-2.219-4.242-2.776l-14.863-4.954c4.209-5.777 6.7-12.881 6.7-20.559 0-19.299-15.701-35-35-35s-35 15.701-35 35c0 7.678 2.491 14.782 6.7 20.559l-14.862 4.954c-1.673.558-3.118 1.533-4.247 2.781-.012.013-.023.015-.036.03l-84.507 94.218c-8.373 9.335-8.011 23.616.825 32.511 4.566 4.599 10.619 6.924 16.688 6.923 5.5 0 11.013-1.911 15.438-5.772l49.001-42.753v50.211s-39.65 145.716-39.651 145.718c-.262.965-.38 1.973-.343 2.991l4.465 119.995c.494 13.814 11.708 24.634 25.529 24.634s25.035-10.82 25.528-24.618l4.422-118.862 20.05-73.682v92.162c0 .018 4.472 120.367 4.472 120.367.493 13.813 11.707 24.633 25.528 24.633s25.035-10.82 25.528-24.618c0 0 4.472-120.362 4.472-120.382v-54c0-5.51-4.49-10-10-10s-10 4.49-10 10v44h-20v-147h20v13c0 5.51 4.49 10 10 10s10-4.49 10-10v-74.549l49.001 42.751c4.426 3.861 9.938 5.772 15.439 5.772 6.066 0 12.12-2.325 16.687-6.923v.001c8.835-8.895 9.198-23.176.825-32.511zm-131.952-137.541c8.272 0 15 6.729 15 15s-6.729 15-15 15-15-6.729-15-15 6.729-15 15-15zm-112.15 156.132c-1.41 1.229-3.467 1.153-4.787-.174 0 0 0 0 0-.001-1.375-1.384-1.431-3.607-.126-5.062l67.063-74.769v25.783zm57.692 290.52c-.108 2.999-2.542 5.348-5.542 5.348s-5.435-2.349-5.542-5.362l-4.079-109.638h19.242zm6.815-129.652h-19.273l34.558-127h19.273zm77.264 40-4.079 109.652c-.107 2.999-2.542 5.348-5.542 5.348s-5.435-2.349-5.542-5.362l-4.079-109.638zm-29.621-187h-30v-63.544-49.248l21.623-7.208h16.754l21.623 7.208v49.248 63.544zm116.937-14.043c0 .001 0 .001 0 0-1.32 1.328-3.378 1.404-4.787.175l-62.15-54.223v-25.783l67.063 74.769c1.305 1.455 1.249 3.678-.126 5.062z"/><circle cx="296" cy="268" r="10"/><circle cx="256" cy="105" r="10"/><circle cx="256" cy="150" r="10"/></g></svg>